# AST/ASF file generated using VICON BodyLanguage
# -----------------------------------------------
:version 1.10
:name VICON
:units
  mass 1.0
  length 0.45
  angle deg
:documentation
   .ast/.asf automatically generated from VICON data using
   VICON BodyBuilder and BodyLanguage model FoxedUp or BRILLIANT.MOD
:root
   order TX TY TZ RX RY RZ
   axis XYZ
   position 0 0 0  
   orientation 0 0 0 
:bonedata
  begin
     id 1 
     name lhipjoint
     direction 0.661853 -0.702389 0.261917 
     length 2.64193 
     axis 0 0 0  XYZ
  end
  begin
     id 2 
     name lfemur
     direction 0.34202 -0.939693 0  
     length 7.01722  
     axis 0 0 20  XYZ
    dof rx ry rz
    limits (-160.0 20.0)
           (-70.0 70.0)
           (-60.0 70.0)
  end
  begin
     id 3 
     name ltibia
     direction 0.34202 -0.939693 0   
     length 8.25008   
     axis 0 0 20   XYZ
    dof rx
    limits (-10.0 170.0)
  end
  begin
     id 4 
     name lfoot
     direction 0.0709916 -0.195048 0.978221   
     length 2.31941   
     axis -90 7.62852e-016 20   XYZ
    dof rx rz
    limits (-45.0 90.0)
           (-70.0 20.0)
  end
  begin
     id 5 
     name ltoes
     direction 1.53586e-011 -4.22017e-011 1   
     length 1.16486   
     axis -90 7.62852e-016 20   XYZ
    dof rx
    limits (-90.0 20.0)
  end
  begin
     id 6 
     name rhipjoint
     direction -0.638185 -0.721362 0.268992   
     length 2.57244  
     axis 0 0 0  XYZ 
  end
  begin
     id 7 
     name rfemur
     direction -0.34202 -0.939693 0   
     length 7.07017   
     axis 0 0 -20   XYZ
    dof rx ry rz
    limits (-160.0 20.0)
           (-70.0 70.0)
           (-70.0 60.0)
  end
  begin
     id 8 
     name rtibia
     direction -0.34202 -0.939693 0   
     length 8.20386   
     axis 0 0 -20   XYZ
    dof rx
    limits (-10.0 170.0)
 end
 begin
     id 9 
     name rfoot
     direction -0.0822429 -0.225961 0.970658   
     length 2.32215  
     axis -90 -7.62852e-016 -20   XYZ
    dof rx rz
    limits (-45.0 90.0)
           (-20.0 70.0)
  end
  begin
     id 10 
     name rtoes
     direction -1.53597e-011 -4.21689e-011 1   
     length 1.16333   
     axis -90 -7.62852e-016 -20   XYZ
    dof rx
    limits (-90.0 20.0)
  end
  begin
     id 11 
     name lowerback
     direction -0.0131557 0.998589 -0.0514484   
     length 2.14993   
     axis 0 0 0   XYZ
    dof rx ry rz
    limits (-20.0 45.0)
           (-30.0 30.0)
           (-30.0 30.0)
  end
  begin
     id 12 
     name upperback
     direction -0.000776481 0.999993 0.00352685   
     length 2.15301   
     axis 0 0 0   XYZ
    dof rx ry rz
    limits (-20.0 45.0)
           (-30.0 30.0)
           (-30.0 30.0)
  end
  begin
     id 13 
     name thorax
     direction 0.00438186 0.999609 0.0276143   
     length 2.15424   
     axis 0 0 0   XYZ
    dof rx ry rz
    limits (-20.0 45.0)
           (-30.0 30.0)
           (-30.0 30.0)
  end
  begin
     id 14 
     name lowerneck
     direction -0.0488006 0.998094 0.0377807   
     length 1.90481   
     axis 0 0 0   XYZ
    dof rx ry rz
    limits (-20.0 45.0)
           (-30.0 30.0)
           (-30.0 30.0)
  end
  begin
     id 15 
     name upperneck
     direction 0.0443769 0.990702 -0.12861   
     length 1.91305   
     axis 0 0 0   XYZ
    dof rx ry rz
    limits (-20.0 45.0)
           (-30.0 30.0)
           (-30.0 30.0)
  end
  begin
     id 16
     name head
     direction 0.0165599 0.998647 -0.0492982  
     length 1.92369  
     axis 0 0 0   XYZ
    dof rx ry rz
    limits (-20.0 45.0)
           (-30.0 30.0)
           (-30.0 30.0)
  end
  begin
     id 17 
     name lclavicle
     direction 0.911936 0.410197 -0.0105506  
     length 3.52622  
     axis 0 0 0   XYZ
    dof ry rz
    limits (-20.0 10.0)
           (0.0 20.0)
  end
  begin
     id 18 
     name lhumerus
     direction 1 -4.48974e-011 -2.48591e-028   
     length 5.47651   
     axis 180 -30 -90   XYZ
    dof rx ry rz
    limits (-60.0 90.0)
           (-90.0 90.0)
           (-90.0 90.0)
  end
  begin
     id 19
     name lradius
     direction 1 -4.48938e-011 -4.40099e-027   
     length 3.09058   
     axis 180 -30 -90   XYZ
    dof rx
    limits (-10.0 170.0)
  end
  begin
     id 20
     name lwrist
     direction 1 -4.49042e-011 -2.99852e-027   
     length 1.54529   
     axis 1.95339e-015 90 90   XYZ
    dof ry
    limits (-180.0 0.0)
 end
  begin
     id 21 
     name lhand
     direction 1 -4.48815e-011 -5.98193e-027   
     length 0.771611   
     axis 3.82337e-015 90 90   XYZ
    dof rx rz
    limits (-90.0 90.0)
           (-45.0 45.0)
  end
  begin
     id 22 
     name lfingers
     direction 1 -4.49034e-011 -1.1993e-026   
     length 0.622093   
     axis 7.64668e-015 90 90   XYZ
    dof rx
    limits (0.0 90.0)
  end
  begin
     id 23
     name lthumb
     direction 0.707107 -6.34867e-011 0.707107   
     length 0.893204   
     axis -90 45 -1.62303e-014   XYZ
    dof rx rz
    limits (-45.0 45.0)
           (-45.0 45.0)
  end
  begin
     id 24 
     name rclavicle
     direction -0.93442 0.355634 -0.0195692   
     length 3.62463  
     axis 0 0 0   XYZ 
    dof ry rz
    limits (-10.0 20.0)
           (-20.0 0.0)
  end
  begin
     id 25 
     name rhumerus
     direction -1 -4.48957e-011 -1.19147e-027  
     length 5.14182   
     axis 180 30 90   XYZ
    dof rx ry rz
    limits (-90.0 60.0)
           (-90.0 90.0)
           (-90.0 90.0)
  end
  begin
     id 26 
     name rradius
     direction -1 -4.48952e-011 -3.81062e-027   
     length 3.35565   
     axis 180 30 90   XYZ
    dof rx
    limits (-10.0 170.0)
  end
  begin
     id 27 
     name rwrist
     direction -1 -4.48973e-011 -2.99621e-027   
     length 1.67782   
     axis 1.95339e-015 -90 -90   XYZ
    dof ry
    limits (-180.0 0.0)
  end
  begin
     id 28
     name rhand
     direction -1 -4.48895e-011 -5.98727e-027   
     length 0.801042   
     axis 3.82337e-015 -90 -90   XYZ
    dof rx rz
    limits (-90.0 90.0)
           (-45.0 45.0)
  end
  begin
     id 29
     name rfingers
     direction -1 -4.49065e-011 -1.19972e-026   
     length 0.645821   
     axis 7.64668e-015 -90 -90   XYZ
    dof rx
    limits (0.0 90.0)
  end
  begin
     id 30
     name rthumb
     direction -0.707107 -6.34957e-011 0.707107   
     length 0.927273   
     axis -90 -45 1.62303e-014   XYZ
    dof rx rz
    limits (-45.0 45.0)
           (-45.0 45.0)
  end
:hierarchy
  begin
    root lhipjoint rhipjoint lowerback
    lhipjoint lfemur
    lfemur ltibia
    ltibia lfoot
    lfoot ltoes
    rhipjoint rfemur
    rfemur rtibia
    rtibia rfoot
    rfoot rtoes
    lowerback upperback
    upperback thorax
    thorax lowerneck lclavicle rclavicle
    lowerneck upperneck
    upperneck head
    lclavicle lhumerus
    lhumerus lradius
    lradius lwrist
    lwrist lhand lthumb
    lhand lfingers
    rclavicle rhumerus
    rhumerus rradius
    rradius rwrist
    rwrist rhand rthumb
    rhand rfingers
  end

#!OML:ASF E:\Style4\Style4.ASF
:FULLY-SPECIFIED
:DEGREES
831
root 0.50185 17.8969 -1.15323 7.77515 0.285845 1.95642
lowerback 11.2193 2.61417 -0.462805
upperback 1.65447 3.37247 -0.693883
thorax -4.5366 1.66581 -0.965345
lowerneck -0.200938 -4.7981 -4.521
upperneck -9.3716 -6.11853 5.77971
head -2.63723 -3.077 2.79411
rclavicle 3.22031e-014 -1.31198e-014
rhumerus 45.7362 -45.8296 -32.8377
rradius 24.7985
rwrist -33.0602
rhand -18.0836 17.0194
rfingers 7.12502
rthumb 8.18969 -12.8019
lclavicle 3.22031e-014 -1.31198e-014
lhumerus 34.0443 31.267 25.3081
lradius 41.8962
lwrist 55.4205
lhand -9.19252 32.1429
lfingers 7.12502
lthumb 16.7611 61.4394
rfemur -22.0379 -0.970143 14.6994
rtibia 31.1025
rfoot -16.7456 -12.3251
rtoes -14.0949
lfemur -22.479 2.84122 -22.5117
ltibia 30.026
lfoot -16.2593 6.80505
ltoes -6.35995
832
root 0.503757 17.8926 -1.15809 7.7859 0.275577 1.9789
lowerback 11.288 2.6325 -0.474557
upperback 1.65668 3.39443 -0.694816
thorax -4.57275 1.67651 -0.966501
lowerneck -0.200879 -4.79545 -4.57989
upperneck -9.21746 -6.11761 5.82147
head -2.58269 -3.07602 2.8134
rclavicle -3.71727e-014 -6.36111e-015
rhumerus 45.2829 -45.8816 -32.7318
rradius 24.7392
rwrist -32.8978
rhand -17.9483 17.0162
rfingers 7.12502
rthumb 8.32022 -12.7999
lclavicle -3.71727e-014 -6.36111e-015
lhumerus 33.9059 31.2365 25.6519
lradius 41.7456
lwrist 55.1677
lhand -8.99437 32.3768
lfingers 7.12502
lthumb 16.9519 61.657
rfemur -22.1604 -0.985706 14.6658
rtibia 31.2599
rfoot -16.811 -12.2849
rtoes -14.2151
lfemur -22.5676 2.85342 -22.548
ltibia 30.1488
lfoot -16.325 6.75147
ltoes -6.25073
833
root 0.505529 17.8886 -1.16216 7.75688 0.25821 2.03385
lowerback 11.3713 2.63879 -0.522527
upperback 1.69489 3.39549 -0.70491
thorax -4.58107 1.67756 -0.953382
lowerneck -0.243585 -4.7884 -4.63019
upperneck -9.09061 -6.10837 5.86205
head -2.53035 -3.07064 2.82999
rclavicle 1.74931e-014 -9.14409e-015
rhumerus 44.6419 -45.7885 -32.4112
rradius 24.756
rwrist -32.9513
rhand -17.9914 17.1601
rfingers 7.12502
rthumb 8.27859 -12.6577
lclavicle 1.74931e-014 -9.14409e-015
lhumerus 33.8136 31.2367 25.9412
lradius 41.3745
lwrist 54.813
lhand -8.42336 32.4052
lfingers 7.12502
lthumb 17.5014 61.6373
rfemur -22.2277 -1.01157 14.6003
rtibia 31.3993
rfoot -16.8386 -12.2655
rtoes -14.2677
lfemur -22.6176 2.9018 -22.627
ltibia 30.2804
lfoot -16.3527 6.72623
ltoes -6.43386
834
root 0.506852 17.8833 -1.16631 7.7349 0.255316 2.07164
lowerback 11.4381 2.64789 -0.572546
upperback 1.7562 3.40112 -0.698069
thorax -4.5571 1.68118 -0.920554
lowerneck -0.255933 -4.80305 -4.67667
upperneck -9.08223 -6.12595 5.90695
head -2.52177 -3.07918 2.85278
rclavicle -2.73329e-014 1.39149e-014
rhumerus 44.0453 -45.7412 -32.1201
rradius 24.7747
rwrist -32.9756
rhand -18.0142 17.2035
rfingers 7.12502
rthumb 8.25664 -12.6151
lclavicle -2.73329e-014 1.39149e-014
lhumerus 33.5907 31.1746 26.1248
lradius 41.1772
lwrist 54.68
lhand -8.05377 32.3031
lfingers 7.12502
lthumb 17.8571 61.5032
rfemur -22.2961 -1.03654 14.5545
rtibia 31.5461
rfoot -16.9104 -12.2341
rtoes -14.0762
lfemur -22.6873 2.89774 -22.6685
ltibia 30.4143
lfoot -16.4369 6.68595
ltoes -5.97861
835
root 0.510298 17.8779 -1.17078 7.73206 0.281932 2.06278
lowerback 11.494 2.64139 -0.513834
upperback 1.8111 3.39851 -0.712119
thorax -4.52629 1.67898 -0.96865
lowerneck -0.268288 -4.79199 -4.63802
upperneck -9.11489 -6.10857 5.91008
head -2.53243 -3.07175 2.8474
rclavicle 4.97956e-014 -1.66979e-014
rhumerus 43.4487 -45.7106 -31.8543
rradius 24.7829
rwrist -33.0651
rhand -17.9764 17.1337
rfingers 7.12502
rthumb 8.29312 -12.6835
lclavicle 4.97956e-014 -1.66979e-014
lhumerus 33.2138 30.9523 26.0902
lradius 41.2554
lwrist 54.8386
lhand -8.08714 32.2905
lfingers 7.12502
lthumb 17.825 61.4936
rfemur -22.3805 -1.16204 14.562
rtibia 31.7052
rfoot -16.9642 -12.1273
rtoes -14.1919
lfemur -22.7818 2.86799 -22.6656
ltibia 30.5524
lfoot -16.519 6.64785
ltoes -5.35477
836
root 0.512912 17.873 -1.17535 7.7556 0.288783 2.05043
lowerback 11.5339 2.63276 -0.468267
upperback 1.83598 3.39237 -0.710094
thorax -4.51982 1.67524 -0.992321
lowerneck -0.257654 -4.77546 -4.65107
upperneck -9.13698 -6.08638 5.91225
head -2.5427 -3.06046 2.85152
rclavicle 2.36554e-014 -4.77083e-015
rhumerus 43.235 -45.8574 -32.0809
rradius 24.7421
rwrist -32.7338
rhand -17.8229 17.0445
rfingers 7.12502
rthumb 8.44128 -12.7668
lclavicle 2.36554e-014 -4.77083e-015
lhumerus 32.6851 30.6607 25.9319
lradius 41.421
lwrist 55.0211
lhand -8.34731 32.3619
lfingers 7.12502
lthumb 17.5746 61.5876
rfemur -22.5173 -1.26293 14.573
rtibia 31.8798
rfoot -17.0255 -12.0435
rtoes -14.3628
lfemur -22.9054 2.87447 -22.6709
ltibia 30.7008
lfoot -16.5307 6.67249
ltoes -5.66416
837
root 0.513102 17.8674 -1.18048 7.74396 0.253582 2.08516
lowerback 11.6331 2.6614 -0.495712
upperback 1.862 3.42526 -0.718752
thorax -4.54813 1.6915 -0.99528
lowerneck -0.228637 -4.80687 -4.64045
upperneck -9.13995 -6.12983 5.90897
head -2.54681 -3.08281 2.85004
rclavicle -1.32192e-014 9.14409e-015
rhumerus 43.2066 -46.21 -32.6017
rradius 24.6859
rwrist -32.0888
rhand -17.596 16.7639
rfingers 7.12502
rthumb 8.66024 -13.0385
lclavicle -1.32192e-014 9.14409e-015
lhumerus 32.3228 30.4533 25.9561
lradius 41.3792
lwrist 54.7037
lhand -8.34353 32.1027
lfingers 7.12502
lthumb 17.5783 61.328
rfemur -22.6394 -1.29883 14.5325
rtibia 32.0717
rfoot -17.0867 -11.977
rtoes -14.2869
lfemur -22.9952 2.91163 -22.721
ltibia 30.8666
lfoot -16.5367 6.6969
ltoes -6.2404
838
root 0.513065 17.8603 -1.18716 7.72327 0.23036 2.16358
lowerback 11.7541 2.70096 -0.554841
upperback 1.89478 3.46694 -0.755288
thorax -4.58145 1.71234 -1.0119
lowerneck -0.164623 -4.85361 -4.58819
upperneck -9.12571 -6.19417 5.91259
head -2.55125 -3.1176 2.84437
rclavicle -1.53064e-014 -1.47101e-014
rhumerus 43.1051 -46.5409 -33.0321
rradius 24.5913
rwrist -31.4888
rhand -17.5229 16.5421
rfingers 7.12502
rthumb 8.73081 -13.2573
lclavicle -1.53064e-014 -1.47101e-014
lhumerus 32.112 30.3049 26.0991
lradius 41.2258
lwrist 54.1254
lhand -7.61291 31.776
lfingers 7.12502
lthumb 18.2813 60.9369
rfemur -22.7638 -1.32069 14.4437
rtibia 32.2643
rfoot -17.0976 -11.977
rtoes -14.2978
lfemur -23.1015 2.94699 -22.8137
ltibia 31.048
lfoot -16.5041 6.67672
ltoes -6.37712
839
root 0.512156 17.8522 -1.19387 7.70172 0.267346 2.1495
lowerback 11.8728 2.7109 -0.529563
upperback 1.92905 3.48291 -0.733424
thorax -4.61077 1.71961 -1.01088
lowerneck -0.091446 -4.86592 -4.61219
upperneck -9.13017 -6.21449 5.90872
head -2.56443 -3.12774 2.85063
rclavicle 6.52014e-014 -1.86858e-014
rhumerus 42.4866 -46.4481 -32.7592
rradius 24.5894
rwrist -31.3563
rhand -17.666 16.5234
rfingers 7.12502
rthumb 8.59264 -13.2818
lclavicle 6.52014e-014 -1.86858e-014
lhumerus 31.7171 30.0042 26.0706
lradius 41.3072
lwrist 54.2374
lhand -7.49666 31.7408
lfingers 7.12502
lthumb 18.3931 60.8912
rfemur -22.8619 -1.36205 14.4629
rtibia 32.4475
rfoot -17.1554 -11.9785
rtoes -14.1334
lfemur -23.2172 2.94475 -22.7979
ltibia 31.2301
lfoot -16.5425 6.6553
ltoes -6.21465
840
root 0.514294 17.8465 -1.19938 7.71337 0.267357 2.12384
lowerback 11.9307 2.72646 -0.479135
upperback 1.96045 3.51062 -0.706161
thorax -4.60827 1.73257 -1.01701
lowerneck -0.00853499 -4.86774 -4.64883
upperneck -9.18449 -6.22175 5.88232
head -2.59725 -3.13029 2.85363
rclavicle 1.98785e-014 -9.54166e-015
rhumerus 40.9776 -45.8262 -31.3926
rradius 24.7973
rwrist -32.0151
rhand -18.0965 16.5882
rfingers 7.12502
rthumb 8.17716 -13.2336
lclavicle 1.98785e-014 -9.54166e-015
lhumerus 31.3591 29.7719 26.1518
lradius 41.4906
lwrist 54.5964
lhand -7.93784 31.962
lfingers 7.12502
lthumb 17.9686 61.1519
rfemur -22.9977 -1.38144 14.4857
rtibia 32.6242
rfoot -17.2534 -11.9299
rtoes -13.8103
lfemur -23.3583 2.9433 -22.7791
ltibia 31.4032
lfoot -16.714 6.61071
ltoes -5.90752
841
root 0.515705 17.8426 -1.20324 7.73383 0.216801 2.08628
lowerback 11.9712 2.74933 -0.44561
upperback 2.00444 3.54598 -0.680778
thorax -4.58369 1.74969 -1.01549
lowerneck -0.12856 -4.91414 -4.64752
upperneck -9.04749 -6.28806 5.81855
head -2.52717 -3.1604 2.8228
rclavicle -8.74653e-015 -1.98785e-015
rhumerus 40.0839 -45.5587 -30.7228
rradius 24.8971
rwrist -32.4103
rhand -18.1248 16.5878
rfingers 7.12502
rthumb 8.14987 -13.235
lclavicle -8.74653e-015 -1.98785e-015
lhumerus 31.0001 29.6291 26.2292
lradius 41.5685
lwrist 54.6771
lhand -7.99191 32.0776
lfingers 7.12502
lthumb 17.9166 61.2723
rfemur -23.1393 -1.36365 14.5204
rtibia 32.7903
rfoot -17.3825 -11.8417
rtoes -13.4819
lfemur -23.4831 2.99959 -22.75
ltibia 31.5732
lfoot -16.8294 6.57579
ltoes -5.64437
842
root 0.515695 17.8372 -1.20867 7.756 0.133886 2.1247
lowerback 12.0042 2.79402 -0.501333
upperback 2.06079 3.59785 -0.676845
thorax -4.546 1.77622 -0.988175
lowerneck -0.325482 -5.00961 -4.7277
upperneck -8.85475 -6.41352 5.85622
head -2.41601 -3.21968 2.83588
rclavicle 9.93923e-017 1.98785e-015
rhumerus 39.7885 -45.6741 -30.7606
rradius 24.8565
rwrist -32.2747
rhand -17.775 16.7243
rfingers 7.12502
rthumb 8.48744 -13.0852
lclavicle 9.93923e-017 1.98785e-015
lhumerus 30.5725 29.3984 26.1957
lradius 41.6466
lwrist 54.7173
lhand -7.84398 31.9415
lfingers 7.12502
lthumb 18.059 61.1231
rfemur -23.2937 -1.35639 14.4743
rtibia 32.9547
rfoot -17.4261 -11.7018
rtoes -13.1944
lfemur -23.605 3.0435 -22.8001
ltibia 31.7363
lfoot -16.8793 6.563
ltoes -5.38736
843
root 0.51521 17.8314 -1.21681 7.74706 0.0820406 2.14273
lowerback 12.1285 2.82241 -0.549742
upperback 2.08687 3.62889 -0.650862
thorax -4.5916 1.79186 -0.944851
lowerneck -0.368376 -5.05823 -4.81967
upperneck -8.7955 -6.47994 5.87345
head -2.38139 -3.2501 2.85465
rclavicle 3.47873e-014 -1.19271e-014
rhumerus 39.2731 -45.5656 -30.531
rradius 24.9109
rwrist -32.2652
rhand -17.3203 16.8831
rfingers 7.12502
rthumb 8.92632 -12.9081
lclavicle 3.47873e-014 -1.19271e-014
lhumerus 30.2538 29.2247 26.3188
lradius 41.6123
lwrist 54.5676
lhand -7.72944 31.8497
lfingers 7.12502
lthumb 18.1692 61.0211
rfemur -23.418 -1.30437 14.45
rtibia 33.114
rfoot -17.4646 -11.6675
rtoes -13.1518
lfemur -23.7264 3.08903 -22.8243
ltibia 31.9105
lfoot -16.9183 6.55835
ltoes -5.54356
844
root 0.514364 17.8244 -1.22277 7.77492 0.0984518 2.10939
lowerback 12.1961 2.83004 -0.518007
upperback 2.11265 3.64366 -0.622595
thorax -4.60156 1.79863 -0.938291
lowerneck -0.43049 -5.07933 -4.84917
upperneck -8.72912 -6.51191 5.82086
head -2.34683 -3.2631 2.8376
rclavicle -1.91827e-014 -1.27222e-014
rhumerus 38.6773 -45.4657 -30.2265
rradius 25.0187
rwrist -32.5213
rhand -16.8093 16.789
rfingers 7.12502
rthumb 9.4193 -12.9806
lclavicle -1.91827e-014 -1.27222e-014
lhumerus 29.9897 29.0462 26.4673
lradius 41.5664
lwrist 54.4857
lhand -7.9522 31.6016
lfingers 7.12502
lthumb 17.9548 60.7928
rfemur -23.5563 -1.36886 14.5024
rtibia 33.268
rfoot -17.4648 -11.6525
rtoes -13.2039
lfemur -23.8884 3.11173 -22.7888
ltibia 32.0976
lfoot -16.8951 6.54236
ltoes -6.17697
845
root 0.515178 17.8177 -1.22834 7.76105 0.126476 2.0713
lowerback 12.2923 2.82925 -0.433452
upperback 2.2222 3.65408 -0.593435
thorax -4.53619 1.80294 -0.958227
lowerneck -0.696684 -5.12008 -4.93473
upperneck -8.63952 -6.5591 5.8312
head -2.26324 -3.2815 2.8426
rclavicle -1.22253e-014 9.14409e-015
rhumerus 38.0214 -45.297 -29.7955
rradius 25.1111
rwrist -32.7595
rhand -16.8213 16.7097
rfingers 7.12502
rthumb 9.40772 -13.0603
lclavicle -1.22253e-014 9.14409e-015
lhumerus 29.761 29.0201 26.6702
lradius 41.5745
lwrist 54.4321
lhand -8.02531 31.4382
lfingers 7.12502
lthumb 17.8845 60.6358
rfemur -23.6347 -1.46291 14.5564
rtibia 33.4074
rfoot -17.4628 -11.6257
rtoes -13.5895
lfemur -24.0119 3.16914 -22.7553
ltibia 32.3005
lfoot -16.8892 6.50907
ltoes -6.57882
